<?xml version="1.0" encoding="UTF-8" standalone="no"?>
<!DOCTYPE svg PUBLIC "-//W3C//DTD SVG 1.1//EN"
 "http://www.w3.org/Graphics/SVG/1.1/DTD/svg11.dtd">
<!-- Generated by graphviz version 2.43.0 (0)
 -->
<!-- Title: godep Pages: 1 -->
<svg width="1880pt" height="796pt"
 viewBox="0.00 0.00 1879.50 796.00" xmlns="http://www.w3.org/2000/svg" xmlns:xlink="http://www.w3.org/1999/xlink">
<g id="graph0" class="graph" transform="scale(1 1) rotate(0) translate(4 792)">
<title>godep</title>
<polygon fill="white" stroke="transparent" points="-4,4 -4,-792 1875.5,-792 1875.5,4 -4,4"/>
<!-- github.com/dustin/go&#45;humanize -->
<g id="node1" class="node">
<title>github.com/dustin/go&#45;humanize</title>
<g id="a_node1"><a xlink:href="https://godoc.org/github.com/dustin/go-humanize" xlink:title="github.com/dustin/go&#45;humanize" target="_blank">
<path fill="paleturquoise" stroke="paleturquoise" d="M230,-130C230,-130 12,-130 12,-130 6,-130 0,-124 0,-118 0,-118 0,-106 0,-106 0,-100 6,-94 12,-94 12,-94 230,-94 230,-94 236,-94 242,-100 242,-106 242,-106 242,-118 242,-118 242,-124 236,-130 230,-130"/>
<text text-anchor="middle" x="121" y="-108.3" font-family="Times,serif" font-size="14.00">github.com/dustin/go&#45;humanize</text>
</a>
</g>
</g>
<!-- github.com/google/uuid -->
<g id="node2" class="node">
<title>github.com/google/uuid</title>
<g id="a_node2"><a xlink:href="https://godoc.org/github.com/google/uuid" xlink:title="github.com/google/uuid" target="_blank">
<path fill="paleturquoise" stroke="paleturquoise" d="M1393.5,-130C1393.5,-130 1232.5,-130 1232.5,-130 1226.5,-130 1220.5,-124 1220.5,-118 1220.5,-118 1220.5,-106 1220.5,-106 1220.5,-100 1226.5,-94 1232.5,-94 1232.5,-94 1393.5,-94 1393.5,-94 1399.5,-94 1405.5,-100 1405.5,-106 1405.5,-106 1405.5,-118 1405.5,-118 1405.5,-124 1399.5,-130 1393.5,-130"/>
<text text-anchor="middle" x="1313" y="-108.3" font-family="Times,serif" font-size="14.00">github.com/google/uuid</text>
</a>
</g>
</g>
<!-- github.com/m0n0x41d/quint&#45;code -->
<g id="node3" class="node">
<title>github.com/m0n0x41d/quint&#45;code</title>
<g id="a_node3"><a xlink:href="https://godoc.org/github.com/m0n0x41d/quint-code" xlink:title="github.com/m0n0x41d/quint&#45;code" target="_blank">
<path fill="paleturquoise" stroke="paleturquoise" d="M1416.5,-788C1416.5,-788 1183.5,-788 1183.5,-788 1177.5,-788 1171.5,-782 1171.5,-776 1171.5,-776 1171.5,-764 1171.5,-764 1171.5,-758 1177.5,-752 1183.5,-752 1183.5,-752 1416.5,-752 1416.5,-752 1422.5,-752 1428.5,-758 1428.5,-764 1428.5,-764 1428.5,-776 1428.5,-776 1428.5,-782 1422.5,-788 1416.5,-788"/>
<text text-anchor="middle" x="1300" y="-766.3" font-family="Times,serif" font-size="14.00">github.com/m0n0x41d/quint&#45;code</text>
</a>
</g>
</g>
<!-- github.com/m0n0x41d/quint&#45;code/cmd -->
<g id="node4" class="node">
<title>github.com/m0n0x41d/quint&#45;code/cmd</title>
<g id="a_node4"><a xlink:href="https://godoc.org/github.com/m0n0x41d/quint-code/cmd" xlink:title="github.com/m0n0x41d/quint&#45;code/cmd" target="_blank">
<path fill="paleturquoise" stroke="paleturquoise" d="M1433.5,-694C1433.5,-694 1166.5,-694 1166.5,-694 1160.5,-694 1154.5,-688 1154.5,-682 1154.5,-682 1154.5,-670 1154.5,-670 1154.5,-664 1160.5,-658 1166.5,-658 1166.5,-658 1433.5,-658 1433.5,-658 1439.5,-658 1445.5,-664 1445.5,-670 1445.5,-670 1445.5,-682 1445.5,-682 1445.5,-688 1439.5,-694 1433.5,-694"/>
<text text-anchor="middle" x="1300" y="-672.3" font-family="Times,serif" font-size="14.00">github.com/m0n0x41d/quint&#45;code/cmd</text>
</a>
</g>
</g>
<!-- github.com/m0n0x41d/quint&#45;code&#45;&gt;github.com/m0n0x41d/quint&#45;code/cmd -->
<g id="edge1" class="edge">
<title>github.com/m0n0x41d/quint&#45;code&#45;&gt;github.com/m0n0x41d/quint&#45;code/cmd</title>
<path fill="none" stroke="black" d="M1300,-751.88C1300,-751.88 1300,-699.07 1300,-699.07"/>
<polygon fill="black" stroke="black" points="1301.75,-699.07 1300,-694.07 1298.25,-699.07 1301.75,-699.07"/>
</g>
<!-- github.com/m0n0x41d/quint&#45;code/db -->
<g id="node6" class="node">
<title>github.com/m0n0x41d/quint&#45;code/db</title>
<g id="a_node6"><a xlink:href="https://godoc.org/github.com/m0n0x41d/quint-code/db" xlink:title="github.com/m0n0x41d/quint&#45;code/db" target="_blank">
<path fill="paleturquoise" stroke="paleturquoise" d="M1212.5,-506C1212.5,-506 957.5,-506 957.5,-506 951.5,-506 945.5,-500 945.5,-494 945.5,-494 945.5,-482 945.5,-482 945.5,-476 951.5,-470 957.5,-470 957.5,-470 1212.5,-470 1212.5,-470 1218.5,-470 1224.5,-476 1224.5,-482 1224.5,-482 1224.5,-494 1224.5,-494 1224.5,-500 1218.5,-506 1212.5,-506"/>
<text text-anchor="middle" x="1085" y="-484.3" font-family="Times,serif" font-size="14.00">github.com/m0n0x41d/quint&#45;code/db</text>
</a>
</g>
</g>
<!-- github.com/m0n0x41d/quint&#45;code/cmd&#45;&gt;github.com/m0n0x41d/quint&#45;code/db -->
<g id="edge2" class="edge">
<title>github.com/m0n0x41d/quint&#45;code/cmd&#45;&gt;github.com/m0n0x41d/quint&#45;code/db</title>
<path fill="none" stroke="black" d="M1154.17,-676C1093.75,-676 1037.5,-676 1037.5,-676 1037.5,-676 1037.5,-511.03 1037.5,-511.03"/>
<polygon fill="black" stroke="black" points="1039.25,-511.03 1037.5,-506.03 1035.75,-511.03 1039.25,-511.03"/>
</g>
<!-- github.com/m0n0x41d/quint&#45;code/internal/fpf -->
<g id="node7" class="node">
<title>github.com/m0n0x41d/quint&#45;code/internal/fpf</title>
<g id="a_node7"><a xlink:href="https://godoc.org/github.com/m0n0x41d/quint-code/internal/fpf" xlink:title="github.com/m0n0x41d/quint&#45;code/internal/fpf" target="_blank">
<path fill="paleturquoise" stroke="paleturquoise" d="M1458.5,-600C1458.5,-600 1141.5,-600 1141.5,-600 1135.5,-600 1129.5,-594 1129.5,-588 1129.5,-588 1129.5,-576 1129.5,-576 1129.5,-570 1135.5,-564 1141.5,-564 1141.5,-564 1458.5,-564 1458.5,-564 1464.5,-564 1470.5,-570 1470.5,-576 1470.5,-576 1470.5,-588 1470.5,-588 1470.5,-594 1464.5,-600 1458.5,-600"/>
<text text-anchor="middle" x="1300" y="-578.3" font-family="Times,serif" font-size="14.00">github.com/m0n0x41d/quint&#45;code/internal/fpf</text>
</a>
</g>
</g>
<!-- github.com/m0n0x41d/quint&#45;code/cmd&#45;&gt;github.com/m0n0x41d/quint&#45;code/internal/fpf -->
<g id="edge3" class="edge">
<title>github.com/m0n0x41d/quint&#45;code/cmd&#45;&gt;github.com/m0n0x41d/quint&#45;code/internal/fpf</title>
<path fill="none" stroke="black" d="M1300,-657.88C1300,-657.88 1300,-605.07 1300,-605.07"/>
<polygon fill="black" stroke="black" points="1301.75,-605.07 1300,-600.07 1298.25,-605.07 1301.75,-605.07"/>
</g>
<!-- github.com/spf13/cobra -->
<g id="node8" class="node">
<title>github.com/spf13/cobra</title>
<g id="a_node8"><a xlink:href="https://godoc.org/github.com/spf13/cobra" xlink:title="github.com/spf13/cobra" target="_blank">
<path fill="paleturquoise" stroke="paleturquoise" d="M1766.5,-600C1766.5,-600 1605.5,-600 1605.5,-600 1599.5,-600 1593.5,-594 1593.5,-588 1593.5,-588 1593.5,-576 1593.5,-576 1593.5,-570 1599.5,-564 1605.5,-564 1605.5,-564 1766.5,-564 1766.5,-564 1772.5,-564 1778.5,-570 1778.5,-576 1778.5,-576 1778.5,-588 1778.5,-588 1778.5,-594 1772.5,-600 1766.5,-600"/>
<text text-anchor="middle" x="1686" y="-578.3" font-family="Times,serif" font-size="14.00">github.com/spf13/cobra</text>
</a>
</g>
</g>
<!-- github.com/m0n0x41d/quint&#45;code/cmd&#45;&gt;github.com/spf13/cobra -->
<g id="edge4" class="edge">
<title>github.com/m0n0x41d/quint&#45;code/cmd&#45;&gt;github.com/spf13/cobra</title>
<path fill="none" stroke="black" d="M1445.65,-676C1555.02,-676 1686,-676 1686,-676 1686,-676 1686,-605.12 1686,-605.12"/>
<polygon fill="black" stroke="black" points="1687.75,-605.12 1686,-600.12 1684.25,-605.12 1687.75,-605.12"/>
</g>
<!-- github.com/m0n0x41d/quint&#45;code/assurance -->
<g id="node5" class="node">
<title>github.com/m0n0x41d/quint&#45;code/assurance</title>
<g id="a_node5"><a xlink:href="https://godoc.org/github.com/m0n0x41d/quint-code/assurance" xlink:title="github.com/m0n0x41d/quint&#45;code/assurance" target="_blank">
<path fill="paleturquoise" stroke="paleturquoise" d="M1649.5,-506C1649.5,-506 1340.5,-506 1340.5,-506 1334.5,-506 1328.5,-500 1328.5,-494 1328.5,-494 1328.5,-482 1328.5,-482 1328.5,-476 1334.5,-470 1340.5,-470 1340.5,-470 1649.5,-470 1649.5,-470 1655.5,-470 1661.5,-476 1661.5,-482 1661.5,-482 1661.5,-494 1661.5,-494 1661.5,-500 1655.5,-506 1649.5,-506"/>
<text text-anchor="middle" x="1495" y="-484.3" font-family="Times,serif" font-size="14.00">github.com/m0n0x41d/quint&#45;code/assurance</text>
</a>
</g>
</g>
<!-- modernc.org/sqlite -->
<g id="node9" class="node">
<title>modernc.org/sqlite</title>
<g id="a_node9"><a xlink:href="https://godoc.org/modernc.org/sqlite" xlink:title="modernc.org/sqlite" target="_blank">
<path fill="paleturquoise" stroke="paleturquoise" d="M851,-412C851,-412 723,-412 723,-412 717,-412 711,-406 711,-400 711,-400 711,-388 711,-388 711,-382 717,-376 723,-376 723,-376 851,-376 851,-376 857,-376 863,-382 863,-388 863,-388 863,-400 863,-400 863,-406 857,-412 851,-412"/>
<text text-anchor="middle" x="787" y="-390.3" font-family="Times,serif" font-size="14.00">modernc.org/sqlite</text>
</a>
</g>
</g>
<!-- github.com/m0n0x41d/quint&#45;code/db&#45;&gt;modernc.org/sqlite -->
<g id="edge5" class="edge">
<title>github.com/m0n0x41d/quint&#45;code/db&#45;&gt;modernc.org/sqlite</title>
<path fill="none" stroke="black" d="M956,-469.77C956,-443.99 956,-400 956,-400 956,-400 868.1,-400 868.1,-400"/>
<polygon fill="black" stroke="black" points="868.1,-398.25 863.1,-400 868.1,-401.75 868.1,-398.25"/>
</g>
<!-- github.com/m0n0x41d/quint&#45;code/internal/fpf&#45;&gt;github.com/google/uuid -->
<g id="edge6" class="edge">
<title>github.com/m0n0x41d/quint&#45;code/internal/fpf&#45;&gt;github.com/google/uuid</title>
<path fill="none" stroke="black" d="M1293.83,-563.86C1293.83,-563.86 1293.83,-135.08 1293.83,-135.08"/>
<polygon fill="black" stroke="black" points="1295.58,-135.08 1293.83,-130.08 1292.08,-135.08 1295.58,-135.08"/>
</g>
<!-- github.com/m0n0x41d/quint&#45;code/internal/fpf&#45;&gt;github.com/m0n0x41d/quint&#45;code/assurance -->
<g id="edge7" class="edge">
<title>github.com/m0n0x41d/quint&#45;code/internal/fpf&#45;&gt;github.com/m0n0x41d/quint&#45;code/assurance</title>
<path fill="none" stroke="black" d="M1399.5,-563.88C1399.5,-563.88 1399.5,-511.07 1399.5,-511.07"/>
<polygon fill="black" stroke="black" points="1401.25,-511.07 1399.5,-506.07 1397.75,-511.07 1401.25,-511.07"/>
</g>
<!-- github.com/m0n0x41d/quint&#45;code/internal/fpf&#45;&gt;github.com/m0n0x41d/quint&#45;code/db -->
<g id="edge8" class="edge">
<title>github.com/m0n0x41d/quint&#45;code/internal/fpf&#45;&gt;github.com/m0n0x41d/quint&#45;code/db</title>
<path fill="none" stroke="black" d="M1177,-563.88C1177,-563.88 1177,-511.07 1177,-511.07"/>
<polygon fill="black" stroke="black" points="1178.75,-511.07 1177,-506.07 1175.25,-511.07 1178.75,-511.07"/>
</g>
<!-- github.com/spf13/pflag -->
<g id="node11" class="node">
<title>github.com/spf13/pflag</title>
<g id="a_node11"><a xlink:href="https://godoc.org/github.com/spf13/pflag" xlink:title="github.com/spf13/pflag" target="_blank">
<path fill="paleturquoise" stroke="paleturquoise" d="M1859.5,-506C1859.5,-506 1702.5,-506 1702.5,-506 1696.5,-506 1690.5,-500 1690.5,-494 1690.5,-494 1690.5,-482 1690.5,-482 1690.5,-476 1696.5,-470 1702.5,-470 1702.5,-470 1859.5,-470 1859.5,-470 1865.5,-470 1871.5,-476 1871.5,-482 1871.5,-482 1871.5,-494 1871.5,-494 1871.5,-500 1865.5,-506 1859.5,-506"/>
<text text-anchor="middle" x="1781" y="-484.3" font-family="Times,serif" font-size="14.00">github.com/spf13/pflag</text>
</a>
</g>
</g>
<!-- github.com/spf13/cobra&#45;&gt;github.com/spf13/pflag -->
<g id="edge9" class="edge">
<title>github.com/spf13/cobra&#45;&gt;github.com/spf13/pflag</title>
<path fill="none" stroke="black" d="M1734.5,-563.88C1734.5,-563.88 1734.5,-511.07 1734.5,-511.07"/>
<polygon fill="black" stroke="black" points="1736.25,-511.07 1734.5,-506.07 1732.75,-511.07 1736.25,-511.07"/>
</g>
<!-- golang.org/x/sys/unix -->
<g id="node13" class="node">
<title>golang.org/x/sys/unix</title>
<g id="a_node13"><a xlink:href="https://godoc.org/golang.org/x/sys/unix" xlink:title="golang.org/x/sys/unix" target="_blank">
<path fill="paleturquoise" stroke="paleturquoise" d="M358.5,-36C358.5,-36 213.5,-36 213.5,-36 207.5,-36 201.5,-30 201.5,-24 201.5,-24 201.5,-12 201.5,-12 201.5,-6 207.5,0 213.5,0 213.5,0 358.5,0 358.5,0 364.5,0 370.5,-6 370.5,-12 370.5,-12 370.5,-24 370.5,-24 370.5,-30 364.5,-36 358.5,-36"/>
<text text-anchor="middle" x="286" y="-14.3" font-family="Times,serif" font-size="14.00">golang.org/x/sys/unix</text>
</a>
</g>
</g>
<!-- modernc.org/sqlite&#45;&gt;golang.org/x/sys/unix -->
<g id="edge19" class="edge">
<title>modernc.org/sqlite&#45;&gt;golang.org/x/sys/unix</title>
<path fill="none" stroke="black" d="M710.94,-394C567.54,-394 271.5,-394 271.5,-394 271.5,-394 271.5,-41.14 271.5,-41.14"/>
<polygon fill="black" stroke="black" points="273.25,-41.14 271.5,-36.14 269.75,-41.14 273.25,-41.14"/>
</g>
<!-- modernc.org/libc -->
<g id="node14" class="node">
<title>modernc.org/libc</title>
<g id="a_node14"><a xlink:href="https://godoc.org/modernc.org/libc" xlink:title="modernc.org/libc" target="_blank">
<path fill="paleturquoise" stroke="paleturquoise" d="M741.5,-224C741.5,-224 628.5,-224 628.5,-224 622.5,-224 616.5,-218 616.5,-212 616.5,-212 616.5,-200 616.5,-200 616.5,-194 622.5,-188 628.5,-188 628.5,-188 741.5,-188 741.5,-188 747.5,-188 753.5,-194 753.5,-200 753.5,-200 753.5,-212 753.5,-212 753.5,-218 747.5,-224 741.5,-224"/>
<text text-anchor="middle" x="685" y="-202.3" font-family="Times,serif" font-size="14.00">modernc.org/libc</text>
</a>
</g>
</g>
<!-- modernc.org/sqlite&#45;&gt;modernc.org/libc -->
<g id="edge20" class="edge">
<title>modernc.org/sqlite&#45;&gt;modernc.org/libc</title>
<path fill="none" stroke="black" d="M739.33,-375.97C739.33,-375.97 739.33,-229.25 739.33,-229.25"/>
<polygon fill="black" stroke="black" points="741.08,-229.25 739.33,-224.25 737.58,-229.25 741.08,-229.25"/>
</g>
<!-- modernc.org/libc/sys/types -->
<g id="node18" class="node">
<title>modernc.org/libc/sys/types</title>
<g id="a_node18"><a xlink:href="https://godoc.org/modernc.org/libc/sys/types" xlink:title="modernc.org/libc/sys/types" target="_blank">
<path fill="paleturquoise" stroke="paleturquoise" d="M954.5,-318C954.5,-318 769.5,-318 769.5,-318 763.5,-318 757.5,-312 757.5,-306 757.5,-306 757.5,-294 757.5,-294 757.5,-288 763.5,-282 769.5,-282 769.5,-282 954.5,-282 954.5,-282 960.5,-282 966.5,-288 966.5,-294 966.5,-294 966.5,-306 966.5,-306 966.5,-312 960.5,-318 954.5,-318"/>
<text text-anchor="middle" x="862" y="-296.3" font-family="Times,serif" font-size="14.00">modernc.org/libc/sys/types</text>
</a>
</g>
</g>
<!-- modernc.org/sqlite&#45;&gt;modernc.org/libc/sys/types -->
<g id="edge21" class="edge">
<title>modernc.org/sqlite&#45;&gt;modernc.org/libc/sys/types</title>
<path fill="none" stroke="black" d="M810.25,-375.88C810.25,-375.88 810.25,-323.07 810.25,-323.07"/>
<polygon fill="black" stroke="black" points="812,-323.07 810.25,-318.07 808.5,-323.07 812,-323.07"/>
</g>
<!-- modernc.org/sqlite/lib -->
<g id="node19" class="node">
<title>modernc.org/sqlite/lib</title>
<g id="a_node19"><a xlink:href="https://godoc.org/modernc.org/sqlite/lib" xlink:title="modernc.org/sqlite/lib" target="_blank">
<path fill="paleturquoise" stroke="paleturquoise" d="M657,-318C657,-318 507,-318 507,-318 501,-318 495,-312 495,-306 495,-306 495,-294 495,-294 495,-288 501,-282 507,-282 507,-282 657,-282 657,-282 663,-282 669,-288 669,-294 669,-294 669,-306 669,-306 669,-312 663,-318 657,-318"/>
<text text-anchor="middle" x="582" y="-296.3" font-family="Times,serif" font-size="14.00">modernc.org/sqlite/lib</text>
</a>
</g>
</g>
<!-- modernc.org/sqlite&#45;&gt;modernc.org/sqlite/lib -->
<g id="edge22" class="edge">
<title>modernc.org/sqlite&#45;&gt;modernc.org/sqlite/lib</title>
<path fill="none" stroke="black" d="M725.17,-375.88C725.17,-348.56 725.17,-300 725.17,-300 725.17,-300 674.4,-300 674.4,-300"/>
<polygon fill="black" stroke="black" points="674.4,-298.25 669.4,-300 674.4,-301.75 674.4,-298.25"/>
</g>
<!-- modernc.org/sqlite/vtab -->
<g id="node20" class="node">
<title>modernc.org/sqlite/vtab</title>
<g id="a_node20"><a xlink:href="https://godoc.org/modernc.org/sqlite/vtab" xlink:title="modernc.org/sqlite/vtab" target="_blank">
<path fill="paleturquoise" stroke="paleturquoise" d="M1172,-318C1172,-318 1008,-318 1008,-318 1002,-318 996,-312 996,-306 996,-306 996,-294 996,-294 996,-288 1002,-282 1008,-282 1008,-282 1172,-282 1172,-282 1178,-282 1184,-288 1184,-294 1184,-294 1184,-306 1184,-306 1184,-312 1178,-318 1172,-318"/>
<text text-anchor="middle" x="1090" y="-296.3" font-family="Times,serif" font-size="14.00">modernc.org/sqlite/vtab</text>
</a>
</g>
</g>
<!-- modernc.org/sqlite&#45;&gt;modernc.org/sqlite/vtab -->
<g id="edge23" class="edge">
<title>modernc.org/sqlite&#45;&gt;modernc.org/sqlite/vtab</title>
<path fill="none" stroke="black" d="M863.07,-388C952.82,-388 1090,-388 1090,-388 1090,-388 1090,-323.23 1090,-323.23"/>
<polygon fill="black" stroke="black" points="1091.75,-323.23 1090,-318.23 1088.25,-323.23 1091.75,-323.23"/>
</g>
<!-- github.com/remyoudompheng/bigfft -->
<g id="node10" class="node">
<title>github.com/remyoudompheng/bigfft</title>
<g id="a_node10"><a xlink:href="https://godoc.org/github.com/remyoudompheng/bigfft" xlink:title="github.com/remyoudompheng/bigfft" target="_blank">
<path fill="paleturquoise" stroke="paleturquoise" d="M1229.5,-36C1229.5,-36 980.5,-36 980.5,-36 974.5,-36 968.5,-30 968.5,-24 968.5,-24 968.5,-12 968.5,-12 968.5,-6 974.5,0 980.5,0 980.5,0 1229.5,0 1229.5,0 1235.5,0 1241.5,-6 1241.5,-12 1241.5,-12 1241.5,-24 1241.5,-24 1241.5,-30 1235.5,-36 1229.5,-36"/>
<text text-anchor="middle" x="1105" y="-14.3" font-family="Times,serif" font-size="14.00">github.com/remyoudompheng/bigfft</text>
</a>
</g>
</g>
<!-- golang.org/x/exp/constraints -->
<g id="node12" class="node">
<title>golang.org/x/exp/constraints</title>
<g id="a_node12"><a xlink:href="https://godoc.org/golang.org/x/exp/constraints" xlink:title="golang.org/x/exp/constraints" target="_blank">
<path fill="paleturquoise" stroke="paleturquoise" d="M539.5,-130C539.5,-130 342.5,-130 342.5,-130 336.5,-130 330.5,-124 330.5,-118 330.5,-118 330.5,-106 330.5,-106 330.5,-100 336.5,-94 342.5,-94 342.5,-94 539.5,-94 539.5,-94 545.5,-94 551.5,-100 551.5,-106 551.5,-106 551.5,-118 551.5,-118 551.5,-124 545.5,-130 539.5,-130"/>
<text text-anchor="middle" x="441" y="-108.3" font-family="Times,serif" font-size="14.00">golang.org/x/exp/constraints</text>
</a>
</g>
</g>
<!-- modernc.org/libc&#45;&gt;github.com/dustin/go&#45;humanize -->
<g id="edge10" class="edge">
<title>modernc.org/libc&#45;&gt;github.com/dustin/go&#45;humanize</title>
<path fill="none" stroke="black" d="M616.41,-215C466.1,-215 121,-215 121,-215 121,-215 121,-135.41 121,-135.41"/>
<polygon fill="black" stroke="black" points="122.75,-135.41 121,-130.41 119.25,-135.41 122.75,-135.41"/>
</g>
<!-- modernc.org/libc&#45;&gt;github.com/google/uuid -->
<g id="edge11" class="edge">
<title>modernc.org/libc&#45;&gt;github.com/google/uuid</title>
<path fill="none" stroke="black" d="M753.69,-215C906.09,-215 1259.17,-215 1259.17,-215 1259.17,-215 1259.17,-135.41 1259.17,-135.41"/>
<polygon fill="black" stroke="black" points="1260.92,-135.41 1259.17,-130.41 1257.42,-135.41 1260.92,-135.41"/>
</g>
<!-- modernc.org/libc&#45;&gt;golang.org/x/exp/constraints -->
<g id="edge12" class="edge">
<title>modernc.org/libc&#45;&gt;golang.org/x/exp/constraints</title>
<path fill="none" stroke="black" d="M616.4,-197C572.32,-197 523.25,-197 523.25,-197 523.25,-197 523.25,-135.03 523.25,-135.03"/>
<polygon fill="black" stroke="black" points="525,-135.03 523.25,-130.03 521.5,-135.03 525,-135.03"/>
</g>
<!-- modernc.org/libc&#45;&gt;golang.org/x/sys/unix -->
<g id="edge13" class="edge">
<title>modernc.org/libc&#45;&gt;golang.org/x/sys/unix</title>
<path fill="none" stroke="black" d="M616.35,-206C505.9,-206 301,-206 301,-206 301,-206 301,-41.03 301,-41.03"/>
<polygon fill="black" stroke="black" points="302.75,-41.03 301,-36.03 299.25,-41.03 302.75,-41.03"/>
</g>
<!-- modernc.org/libc/uuid/uuid -->
<g id="node15" class="node">
<title>modernc.org/libc/uuid/uuid</title>
<g id="a_node15"><a xlink:href="https://godoc.org/modernc.org/libc/uuid/uuid" xlink:title="modernc.org/libc/uuid/uuid" target="_blank">
<path fill="paleturquoise" stroke="paleturquoise" d="M777.5,-130C777.5,-130 592.5,-130 592.5,-130 586.5,-130 580.5,-124 580.5,-118 580.5,-118 580.5,-106 580.5,-106 580.5,-100 586.5,-94 592.5,-94 592.5,-94 777.5,-94 777.5,-94 783.5,-94 789.5,-100 789.5,-106 789.5,-106 789.5,-118 789.5,-118 789.5,-124 783.5,-130 777.5,-130"/>
<text text-anchor="middle" x="685" y="-108.3" font-family="Times,serif" font-size="14.00">modernc.org/libc/uuid/uuid</text>
</a>
</g>
</g>
<!-- modernc.org/libc&#45;&gt;modernc.org/libc/uuid/uuid -->
<g id="edge14" class="edge">
<title>modernc.org/libc&#45;&gt;modernc.org/libc/uuid/uuid</title>
<path fill="none" stroke="black" d="M685,-187.88C685,-187.88 685,-135.07 685,-135.07"/>
<polygon fill="black" stroke="black" points="686.75,-135.07 685,-130.07 683.25,-135.07 686.75,-135.07"/>
</g>
<!-- modernc.org/mathutil -->
<g id="node16" class="node">
<title>modernc.org/mathutil</title>
<g id="a_node16"><a xlink:href="https://godoc.org/modernc.org/mathutil" xlink:title="modernc.org/mathutil" target="_blank">
<path fill="paleturquoise" stroke="paleturquoise" d="M1179.5,-130C1179.5,-130 1030.5,-130 1030.5,-130 1024.5,-130 1018.5,-124 1018.5,-118 1018.5,-118 1018.5,-106 1018.5,-106 1018.5,-100 1024.5,-94 1030.5,-94 1030.5,-94 1179.5,-94 1179.5,-94 1185.5,-94 1191.5,-100 1191.5,-106 1191.5,-106 1191.5,-118 1191.5,-118 1191.5,-124 1185.5,-130 1179.5,-130"/>
<text text-anchor="middle" x="1105" y="-108.3" font-family="Times,serif" font-size="14.00">modernc.org/mathutil</text>
</a>
</g>
</g>
<!-- modernc.org/libc&#45;&gt;modernc.org/mathutil -->
<g id="edge15" class="edge">
<title>modernc.org/libc&#45;&gt;modernc.org/mathutil</title>
<path fill="none" stroke="black" d="M753.74,-206C871.96,-206 1101.25,-206 1101.25,-206 1101.25,-206 1101.25,-135.12 1101.25,-135.12"/>
<polygon fill="black" stroke="black" points="1103,-135.12 1101.25,-130.12 1099.5,-135.12 1103,-135.12"/>
</g>
<!-- modernc.org/memory -->
<g id="node17" class="node">
<title>modernc.org/memory</title>
<g id="a_node17"><a xlink:href="https://godoc.org/modernc.org/memory" xlink:title="modernc.org/memory" target="_blank">
<path fill="paleturquoise" stroke="paleturquoise" d="M977,-130C977,-130 831,-130 831,-130 825,-130 819,-124 819,-118 819,-118 819,-106 819,-106 819,-100 825,-94 831,-94 831,-94 977,-94 977,-94 983,-94 989,-100 989,-106 989,-106 989,-118 989,-118 989,-124 983,-130 977,-130"/>
<text text-anchor="middle" x="904" y="-108.3" font-family="Times,serif" font-size="14.00">modernc.org/memory</text>
</a>
</g>
</g>
<!-- modernc.org/libc&#45;&gt;modernc.org/memory -->
<g id="edge16" class="edge">
<title>modernc.org/libc&#45;&gt;modernc.org/memory</title>
<path fill="none" stroke="black" d="M753.6,-197C814.11,-197 892.75,-197 892.75,-197 892.75,-197 892.75,-135.03 892.75,-135.03"/>
<polygon fill="black" stroke="black" points="894.5,-135.03 892.75,-130.03 891,-135.03 894.5,-135.03"/>
</g>
<!-- modernc.org/mathutil&#45;&gt;github.com/remyoudompheng/bigfft -->
<g id="edge17" class="edge">
<title>modernc.org/mathutil&#45;&gt;github.com/remyoudompheng/bigfft</title>
<path fill="none" stroke="black" d="M1105,-93.88C1105,-93.88 1105,-41.07 1105,-41.07"/>
<polygon fill="black" stroke="black" points="1106.75,-41.07 1105,-36.07 1103.25,-41.07 1106.75,-41.07"/>
</g>
<!-- modernc.org/memory&#45;&gt;golang.org/x/sys/unix -->
<g id="edge18" class="edge">
<title>modernc.org/memory&#45;&gt;golang.org/x/sys/unix</title>
<path fill="none" stroke="black" d="M893.75,-93.88C893.75,-66.56 893.75,-18 893.75,-18 893.75,-18 375.51,-18 375.51,-18"/>
<polygon fill="black" stroke="black" points="375.51,-16.25 370.51,-18 375.5,-19.75 375.51,-16.25"/>
</g>
<!-- modernc.org/sqlite/lib&#45;&gt;modernc.org/libc -->
<g id="edge24" class="edge">
<title>modernc.org/sqlite/lib&#45;&gt;modernc.org/libc</title>
<path fill="none" stroke="black" d="M642.75,-281.88C642.75,-281.88 642.75,-229.07 642.75,-229.07"/>
<polygon fill="black" stroke="black" points="644.5,-229.07 642.75,-224.07 641,-229.07 644.5,-229.07"/>
</g>
</g>
</svg>
