<?xml version="1.0" encoding="UTF-8" standalone="no"?>
<!DOCTYPE svg PUBLIC "-//W3C//DTD SVG 1.1//EN"
 "http://www.w3.org/Graphics/SVG/1.1/DTD/svg11.dtd">
<!-- Generated by graphviz version 2.43.0 (0)
 -->
<!-- Title: godep Pages: 1 -->
<svg width="863pt" height="420pt"
 viewBox="0.00 0.00 863.00 420.00" xmlns="http://www.w3.org/2000/svg" xmlns:xlink="http://www.w3.org/1999/xlink">
<g id="graph0" class="graph" transform="scale(1 1) rotate(0) translate(4 416)">
<title>godep</title>
<polygon fill="white" stroke="transparent" points="-4,4 -4,-416 859,-416 859,4 -4,4"/>
<!-- github.com/m0n0x41d/quint&#45;code -->
<g id="node1" class="node">
<title>github.com/m0n0x41d/quint&#45;code</title>
<g id="a_node1"><a xlink:href="https://godoc.org/github.com/m0n0x41d/quint-code" xlink:title="github.com/m0n0x41d/quint&#45;code" target="_blank">
<path fill="paleturquoise" stroke="paleturquoise" d="M561,-412C561,-412 328,-412 328,-412 322,-412 316,-406 316,-400 316,-400 316,-388 316,-388 316,-382 322,-376 328,-376 328,-376 561,-376 561,-376 567,-376 573,-382 573,-388 573,-388 573,-400 573,-400 573,-406 567,-412 561,-412"/>
<text text-anchor="middle" x="444.5" y="-390.3" font-family="Times,serif" font-size="14.00">github.com/m0n0x41d/quint&#45;code</text>
</a>
</g>
</g>
<!-- github.com/m0n0x41d/quint&#45;code/cmd -->
<g id="node2" class="node">
<title>github.com/m0n0x41d/quint&#45;code/cmd</title>
<g id="a_node2"><a xlink:href="https://godoc.org/github.com/m0n0x41d/quint-code/cmd" xlink:title="github.com/m0n0x41d/quint&#45;code/cmd" target="_blank">
<path fill="paleturquoise" stroke="paleturquoise" d="M578,-318C578,-318 311,-318 311,-318 305,-318 299,-312 299,-306 299,-306 299,-294 299,-294 299,-288 305,-282 311,-282 311,-282 578,-282 578,-282 584,-282 590,-288 590,-294 590,-294 590,-306 590,-306 590,-312 584,-318 578,-318"/>
<text text-anchor="middle" x="444.5" y="-296.3" font-family="Times,serif" font-size="14.00">github.com/m0n0x41d/quint&#45;code/cmd</text>
</a>
</g>
</g>
<!-- github.com/m0n0x41d/quint&#45;code&#45;&gt;github.com/m0n0x41d/quint&#45;code/cmd -->
<g id="edge1" class="edge">
<title>github.com/m0n0x41d/quint&#45;code&#45;&gt;github.com/m0n0x41d/quint&#45;code/cmd</title>
<path fill="none" stroke="black" d="M444.5,-375.88C444.5,-375.88 444.5,-323.07 444.5,-323.07"/>
<polygon fill="black" stroke="black" points="446.25,-323.07 444.5,-318.07 442.75,-323.07 446.25,-323.07"/>
</g>
<!-- github.com/m0n0x41d/quint&#45;code/db -->
<g id="node4" class="node">
<title>github.com/m0n0x41d/quint&#45;code/db</title>
<g id="a_node4"><a xlink:href="https://godoc.org/github.com/m0n0x41d/quint-code/db" xlink:title="github.com/m0n0x41d/quint&#45;code/db" target="_blank">
<path fill="paleturquoise" stroke="paleturquoise" d="M267,-130C267,-130 12,-130 12,-130 6,-130 0,-124 0,-118 0,-118 0,-106 0,-106 0,-100 6,-94 12,-94 12,-94 267,-94 267,-94 273,-94 279,-100 279,-106 279,-106 279,-118 279,-118 279,-124 273,-130 267,-130"/>
<text text-anchor="middle" x="139.5" y="-108.3" font-family="Times,serif" font-size="14.00">github.com/m0n0x41d/quint&#45;code/db</text>
</a>
</g>
</g>
<!-- github.com/m0n0x41d/quint&#45;code/cmd&#45;&gt;github.com/m0n0x41d/quint&#45;code/db -->
<g id="edge2" class="edge">
<title>github.com/m0n0x41d/quint&#45;code/cmd&#45;&gt;github.com/m0n0x41d/quint&#45;code/db</title>
<path fill="none" stroke="black" d="M298.85,-300C219.38,-300 137,-300 137,-300 137,-300 137,-135.03 137,-135.03"/>
<polygon fill="black" stroke="black" points="138.75,-135.03 137,-130.03 135.25,-135.03 138.75,-135.03"/>
</g>
<!-- github.com/m0n0x41d/quint&#45;code/internal/fpf -->
<g id="node5" class="node">
<title>github.com/m0n0x41d/quint&#45;code/internal/fpf</title>
<g id="a_node5"><a xlink:href="https://godoc.org/github.com/m0n0x41d/quint-code/internal/fpf" xlink:title="github.com/m0n0x41d/quint&#45;code/internal/fpf" target="_blank">
<path fill="paleturquoise" stroke="paleturquoise" d="M603,-224C603,-224 286,-224 286,-224 280,-224 274,-218 274,-212 274,-212 274,-200 274,-200 274,-194 280,-188 286,-188 286,-188 603,-188 603,-188 609,-188 615,-194 615,-200 615,-200 615,-212 615,-212 615,-218 609,-224 603,-224"/>
<text text-anchor="middle" x="444.5" y="-202.3" font-family="Times,serif" font-size="14.00">github.com/m0n0x41d/quint&#45;code/internal/fpf</text>
</a>
</g>
</g>
<!-- github.com/m0n0x41d/quint&#45;code/cmd&#45;&gt;github.com/m0n0x41d/quint&#45;code/internal/fpf -->
<g id="edge3" class="edge">
<title>github.com/m0n0x41d/quint&#45;code/cmd&#45;&gt;github.com/m0n0x41d/quint&#45;code/internal/fpf</title>
<path fill="none" stroke="black" d="M444.5,-281.88C444.5,-281.88 444.5,-229.07 444.5,-229.07"/>
<polygon fill="black" stroke="black" points="446.25,-229.07 444.5,-224.07 442.75,-229.07 446.25,-229.07"/>
</g>
<!-- github.com/spf13/cobra -->
<g id="node6" class="node">
<title>github.com/spf13/cobra</title>
<path fill="lightgrey" stroke="black" d="M817,-224C817,-224 656,-224 656,-224 650,-224 644,-218 644,-212 644,-212 644,-200 644,-200 644,-194 650,-188 656,-188 656,-188 817,-188 817,-188 823,-188 829,-194 829,-200 829,-200 829,-212 829,-212 829,-218 823,-224 817,-224"/>
<text text-anchor="middle" x="736.5" y="-202.3" font-family="Times,serif" font-size="14.00">github.com/spf13/cobra</text>
</g>
<!-- github.com/m0n0x41d/quint&#45;code/cmd&#45;&gt;github.com/spf13/cobra -->
<g id="edge4" class="edge">
<title>github.com/m0n0x41d/quint&#45;code/cmd&#45;&gt;github.com/spf13/cobra</title>
<path fill="none" stroke="black" d="M590.07,-300C663.21,-300 736.5,-300 736.5,-300 736.5,-300 736.5,-229.12 736.5,-229.12"/>
<polygon fill="black" stroke="black" points="738.25,-229.12 736.5,-224.12 734.75,-229.12 738.25,-229.12"/>
</g>
<!-- github.com/m0n0x41d/quint&#45;code/assurance -->
<g id="node3" class="node">
<title>github.com/m0n0x41d/quint&#45;code/assurance</title>
<g id="a_node3"><a xlink:href="https://godoc.org/github.com/m0n0x41d/quint-code/assurance" xlink:title="github.com/m0n0x41d/quint&#45;code/assurance" target="_blank">
<path fill="paleturquoise" stroke="paleturquoise" d="M629,-130C629,-130 320,-130 320,-130 314,-130 308,-124 308,-118 308,-118 308,-106 308,-106 308,-100 314,-94 320,-94 320,-94 629,-94 629,-94 635,-94 641,-100 641,-106 641,-106 641,-118 641,-118 641,-124 635,-130 629,-130"/>
<text text-anchor="middle" x="474.5" y="-108.3" font-family="Times,serif" font-size="14.00">github.com/m0n0x41d/quint&#45;code/assurance</text>
</a>
</g>
</g>
<!-- modernc.org/sqlite -->
<g id="node7" class="node">
<title>modernc.org/sqlite</title>
<path fill="lightgrey" stroke="black" d="M203.5,-36C203.5,-36 75.5,-36 75.5,-36 69.5,-36 63.5,-30 63.5,-24 63.5,-24 63.5,-12 63.5,-12 63.5,-6 69.5,0 75.5,0 75.5,0 203.5,0 203.5,0 209.5,0 215.5,-6 215.5,-12 215.5,-12 215.5,-24 215.5,-24 215.5,-30 209.5,-36 203.5,-36"/>
<text text-anchor="middle" x="139.5" y="-14.3" font-family="Times,serif" font-size="14.00">modernc.org/sqlite</text>
</g>
<!-- github.com/m0n0x41d/quint&#45;code/db&#45;&gt;modernc.org/sqlite -->
<g id="edge5" class="edge">
<title>github.com/m0n0x41d/quint&#45;code/db&#45;&gt;modernc.org/sqlite</title>
<path fill="none" stroke="black" d="M139.5,-93.88C139.5,-93.88 139.5,-41.07 139.5,-41.07"/>
<polygon fill="black" stroke="black" points="141.25,-41.07 139.5,-36.07 137.75,-41.07 141.25,-41.07"/>
</g>
<!-- github.com/m0n0x41d/quint&#45;code/internal/fpf&#45;&gt;github.com/m0n0x41d/quint&#45;code/assurance -->
<g id="edge7" class="edge">
<title>github.com/m0n0x41d/quint&#45;code/internal/fpf&#45;&gt;github.com/m0n0x41d/quint&#45;code/assurance</title>
<path fill="none" stroke="black" d="M410.33,-187.88C410.33,-187.88 410.33,-135.07 410.33,-135.07"/>
<polygon fill="black" stroke="black" points="412.08,-135.07 410.33,-130.07 408.58,-135.07 412.08,-135.07"/>
</g>
<!-- github.com/m0n0x41d/quint&#45;code/internal/fpf&#45;&gt;github.com/m0n0x41d/quint&#45;code/db -->
<g id="edge8" class="edge">
<title>github.com/m0n0x41d/quint&#45;code/internal/fpf&#45;&gt;github.com/m0n0x41d/quint&#45;code/db</title>
<path fill="none" stroke="black" d="M293.5,-187.88C293.5,-160.56 293.5,-112 293.5,-112 293.5,-112 284.01,-112 284.01,-112"/>
<polygon fill="black" stroke="black" points="284.01,-110.25 279.01,-112 284.01,-113.75 284.01,-110.25"/>
</g>
<!-- github.com/google/uuid -->
<g id="node8" class="node">
<title>github.com/google/uuid</title>
<path fill="lightgrey" stroke="black" d="M843,-130C843,-130 682,-130 682,-130 676,-130 670,-124 670,-118 670,-118 670,-106 670,-106 670,-100 676,-94 682,-94 682,-94 843,-94 843,-94 849,-94 855,-100 855,-106 855,-106 855,-118 855,-118 855,-124 849,-130 843,-130"/>
<text text-anchor="middle" x="762.5" y="-108.3" font-family="Times,serif" font-size="14.00">github.com/google/uuid</text>
</g>
<!-- github.com/m0n0x41d/quint&#45;code/internal/fpf&#45;&gt;github.com/google/uuid -->
<g id="edge6" class="edge">
<title>github.com/m0n0x41d/quint&#45;code/internal/fpf&#45;&gt;github.com/google/uuid</title>
<path fill="none" stroke="black" d="M512.67,-187.96C512.67,-174.71 512.67,-159 512.67,-159 512.67,-159 749.5,-159 749.5,-159 749.5,-159 749.5,-135.04 749.5,-135.04"/>
<polygon fill="black" stroke="black" points="751.25,-135.04 749.5,-130.04 747.75,-135.04 751.25,-135.04"/>
</g>
</g>
</svg>
